<svg xmlns="http://www.w3.org/2000/svg" class="__ds_svg __ds_svg_invision-download-symbol" viewBox="0 0 100 87" width="100" preserveAspectRatio="xMinYMin meet" role="img" aria-label="invision download symbol" focusable="false" style="overflow: visible;"><path fill="#F36" d="M60.8 72.4H1.2c-.7 0-1.2-.5-1.2-1.2v-70C0 .5.5 0 1.2 0H27c.3 0 .6.1.9.4l7 7h51c.7 0 1.2.5 1.2 1.2v38.7c-.6 0-1.2-.1-1.8-.1h-.6V9.8H34.4c-.3 0-.6-.1-.9-.4l-7-7h-24v67.5h58.4c0 .6-.1 1.2-.1 1.8-.1.3 0 .5 0 .7zm24.5 7.3c-.3 0-.6-.1-.9-.4L79.1 74c-.5-.5-.5-1.3 0-1.7.5-.5 1.3-.5 1.7 0l3.3 3.3V65.1c0-.7.5-1.2 1.2-1.2s1.2.5 1.2 1.2v10.4l3.3-3.3c.5-.5 1.3-.5 1.7 0 .5.5.5 1.3 0 1.7l-5.4 5.4c-.2.3-.5.4-.8.4zm-50-50.1c-1.4 0-2.5-1.1-2.5-2.6s1.1-2.6 2.5-2.6 2.5 1.1 2.5 2.6c.1 1.4-1.1 2.6-2.5 2.6M50 31.7c2.3 0 4.2 1.8 4.2 5.2 0 .9-.1 1.8-.4 2.9l-1.2 4.5c-.1.5-.2.9-.2 1.2 0 .8.3 1.2.8 1.2.6 0 1.3-.4 2.1-2.8l1.6.7c-1 3.6-2.7 5.1-4.9 5.1-2.5 0-3.8-1.6-3.8-3.8 0-.6.1-1.3.3-2l1.2-4.7c.1-.5.2-1 .2-1.4 0-1.5-.8-2.4-2.2-2.4-1.7 0-2.9 1.3-3.5 3.9L42 49.4h-4.1l.7-3.2c-1.2 2.1-2.9 3.5-5 3.5-2.5 0-3.7-1.5-3.7-3.9 0-.6.1-1.3.2-2l1.9-8.2h-2.9L30 32h7l-2.8 11.8c-.2.8-.3 1.4-.3 1.8 0 .8.3 1 .9 1.1h.2c.7 0 2.9-.4 4.2-3.4l1.8-7.8h-3l1-3.5h6.3l-.8 4c1.1-2.2 3.3-4.3 5.5-4.3zm35.3 25.4c-8.1 0-14.7 6.6-14.7 14.7s6.6 14.7 14.7 14.7S100 79.9 100 71.8s-6.6-14.7-14.7-14.7zm0 27.6c-7.1 0-12.9-5.8-12.9-12.9 0-7.1 5.8-12.9 12.9-12.9 7.1 0 12.9 5.8 12.9 12.9 0 7.1-5.8 12.9-12.9 12.9z"/></svg>