<svg xmlns="http://www.w3.org/2000/svg" aria-labelledby="9f4t11s-aria" role="img" viewBox="0 0 722 1378"><title id="9f4t11s-aria">Loading...</title><rect role="presentation" x="0" y="0" width="100%" height="100%" clip-path="url(#9f4t11s-diff)" style="fill:url(#9f4t11s-animated-diff)"/><defs><clipPath id="9f4t11s-diff"><rect y="341" width="319" height="319" rx="10" ry="10"/><rect y="116.5" width="480.7" height="57.7" rx="10" ry="10"/><rect y="202.5" width="371" height="57.7" rx="10" ry="10"/><rect x="361" y="430" width="332.8" height="36.4" rx="10" ry="10"/><rect x="361" y="473" width="290" height="36.4" rx="10" ry="10"/><rect x="361" y="534.9" width="256" height="30" rx="10" ry="10"/><rect x="361" y="789" width="332.8" height="36.4" rx="10" ry="10"/><rect x="361" y="832" width="290" height="36.4" rx="10" ry="10"/><rect x="361" y="893.9" width="256" height="30" rx="10" ry="10"/><rect x="361" y="1148" width="332.8" height="36.4" rx="10" ry="10"/><rect x="361" y="1191" width="290" height="36.4" rx="10" ry="10"/><rect x="361" y="1252.9" width="256" height="30" rx="10" ry="10"/><rect y="700" width="319" height="319" rx="10" ry="10"/><rect y="1059" width="319" height="319" rx="10" ry="10"/></clipPath><linearGradient id="9f4t11s-animated-diff"><stop offset="0%" stop-color="#f5f6f7" stop-opacity="1"><animate attributeName="offset" values="-2; -2; 1" keyTimes="0; 0.25; 1" dur="1.2s" repeatCount="indefinite"/></stop><stop offset="50%" stop-color="#eee" stop-opacity="1"><animate attributeName="offset" values="-1; -1; 2" keyTimes="0; 0.25; 1" dur="1.2s" repeatCount="indefinite"/></stop><stop offset="100%" stop-color="#f5f6f7" stop-opacity="1"><animate attributeName="offset" values="0; 0; 3" keyTimes="0; 0.25; 1" dur="1.2s" repeatCount="indefinite"/></stop></linearGradient></defs></svg>