<svg xmlns="http://www.w3.org/2000/svg" class="__ds_svg __ds_svg_invision logo-img logo-height key--invision-logo logo-vision-img fs0lh0" viewBox="0 0 84.3 34.1" width="100" preserveAspectRatio="xMinYMin meet" role="img" aria-label="invision" focusable="false" style="overflow:visible"><path fill="#1D1D1F" d="m32 13.1h3.4l-5.2 13h-3.1l-5.2-13h3.5l3.2 9.4 3.4-9.4zm19.4 6.6c-0.4-0.3-0.8-0.6-1.4-0.9-0.6-0.2-1.3-0.4-2.1-0.5l-1.7-0.3c-0.4-0.1-0.8-0.1-1-0.2-0.3-0.1-0.5-0.2-0.6-0.3s-0.2-0.2-0.3-0.4-0.1-0.4-0.1-0.6 0-0.4 0.1-0.5c0.1-0.2 0.2-0.3 0.4-0.4s0.5-0.3 0.8-0.3c0.3-0.1 0.7-0.1 1.3-0.1 0.9 0 1.5 0.1 1.9 0.4s0.7 0.8 0.8 1.4v0.1l2.8-0.4v-0.1c-0.1-0.5-0.3-1-0.5-1.5s-0.6-0.9-1-1.2-1-0.6-1.7-0.8-1.5-0.3-2.5-0.3c-0.8 0-1.5 0.1-2.2 0.3s-1.2 0.5-1.7 0.8-0.9 0.8-1.1 1.3c-0.3 0.5-0.4 1.1-0.4 1.7s0.1 1.2 0.3 1.6 0.5 0.8 0.9 1.1 0.9 0.6 1.5 0.8 1.2 0.3 2 0.5l1.7 0.3c0.8 0.1 1.2 0.3 1.5 0.6 0.2 0.3 0.4 0.6 0.4 1 0 0.5-0.2 0.8-0.5 1.1-0.4 0.3-1 0.4-2 0.4-0.8 0-1.5-0.1-2-0.4s-0.8-0.8-1-1.6v-0.1h-2.9v0.1c0 0.8 0.2 1.5 0.6 2.1 0.3 0.6 0.8 1 1.3 1.4 0.5 0.3 1.2 0.6 1.9 0.7s1.4 0.2 2.2 0.2c1.8 0 3.2-0.4 4.1-1.1s1.4-1.7 1.4-2.9c0-0.6-0.1-1.1-0.2-1.6-0.3-0.6-0.6-1-1-1.4m16.8-0.1c0-1.4-0.3-2.4-0.8-3.2s-1.4-1.1-2.5-1.1-1.9 0.4-2.5 1.2c-0.5 0.8-0.8 1.9-0.8 3.2 0 1.4 0.3 2.4 0.8 3.2s1.3 1.2 2.5 1.2 2-0.4 2.5-1.2 0.8-1.9 0.8-3.3m1.4-5c0.6 0.6 1 1.3 1.3 2.2 0.3 0.8 0.4 1.8 0.4 2.8 0 1.1-0.2 2.1-0.4 2.9-0.3 0.9-0.7 1.6-1.3 2.2s-1.2 1.1-2 1.4-1.7 0.5-2.7 0.5c-2 0-3.6-0.6-4.7-1.8s-1.7-2.9-1.7-5.1c0-1.1 0.2-2 0.4-2.9 0.3-0.8 0.7-1.6 1.3-2.2s1.3-1.1 2.1-1.4 1.7-0.5 2.7-0.5 1.9 0.2 2.7 0.5c0.7 0.3 1.4 0.8 1.9 1.4m10.3-1.9c-0.8 0-1.6 0.2-2.3 0.6-0.6 0.3-1.2 0.8-1.8 1.5v-1.6h-3v13h3.1v-7.7c0-0.5 0.1-0.9 0.2-1.2 0.2-0.3 0.4-0.7 0.7-0.9 0.7-0.6 1.4-0.9 2.3-0.9 0.7 0 1.2 0.2 1.6 0.6s0.5 1.1 0.5 2.1v8.1h3.1v-8.6c0-3.4-1.5-5-4.4-5m-43.4 13.5h3.1v-13h-3.1v13zm17.4 0h3.1v-13h-3.1v13zm-48.3-14.6c1 0 1.8-0.8 1.8-1.8s-0.8-1.8-1.8-1.8-1.8 0.8-1.8 1.8 0.8 1.8 1.8 1.8zm16.6 10.4c-0.1 0.4-0.4 2.3-1.9 2.3-0.6 0-1-0.6-0.9-1.2l1.3-5c0.2-0.9 0.2-1.8 0.1-2.6-0.3-1.6-1.7-2.9-3.4-2.9-1.6 0-3.4 1.1-4.5 2.9l0.7-2.5h-5.1l-0.7 2.5h2.6l-1.4 5.4c-0.5 1.6-1.1 3-3 3-1.1 0-2.1-1-1.8-2.5 0 0 2.1-7.9 2.2-8.3h-5.8l-0.6 2.5h2.6l-1.5 5.5c-0.2 0.9-0.3 1.8-0.1 2.6 0.3 1.6 1.7 2.9 3.4 2.9 1.4 0 2.9-0.8 3.9-2.1l-0.5 1.7h2.9l2.1-7.8c0.5-1.6 1.1-3 3-3 1.1 0 2.1 1 1.8 2.5l-1.2 4.4c-0.6 2.1 0.9 4.3 3.2 4.3 3.4 0 4.3-4 4.4-4.6h-1.8zm15.8-10.4c1 0 1.8-0.8 1.8-1.8s-0.8-1.8-1.8-1.8-1.8 0.8-1.8 1.8 0.8 1.8 1.8 1.8zm17.5 0c1 0 1.8-0.8 1.8-1.8s-0.8-1.8-1.8-1.8-1.8 0.8-1.8 1.8 0.8 1.8 1.8 1.8z"/></svg>