<svg xmlns="http://www.w3.org/2000/svg" aria-labelledby="el8q3w4-aria" role="img" viewBox="0 0 2888 1790.3"><title id="el8q3w4-aria">Loading...</title><rect role="presentation" x="0" y="0" width="100%" height="100%" clip-path="url(#el8q3w4-diff)" style="fill:url(#el8q3w4-animated-diff)"/><defs><clipPath id="el8q3w4-diff"><rect y="200" width="1444" height="202.9" rx="20" ry="20"/><rect x="0" y="589.9" width="881.6" height="881.6" rx="20" ry="20"/><rect y="1509.1" width="639.5" height="44.2" rx="10" ry="10"/><rect y="1563.6" width="463.3" height="44.2" rx="10" ry="10"/><rect y="1657.8" width="295.5" height="32.5" rx="10" ry="10"/><rect x="1003.2" y="589.9" width="881.6" height="881.6" rx="20" ry="20"/><rect x="1003.2" y="1509.1" width="639.5" height="44.2" rx="10" ry="10"/><rect x="1003.2" y="1563.6" width="463.3" height="44.2" rx="10" ry="10"/><rect x="1003.2" y="1657.8" width="295.5" height="32.5" rx="10" ry="10"/><rect x="2006.4" y="589.9" width="881.6" height="881.6" rx="20" ry="20"/><rect x="2006.4" y="1509.1" width="639.5" height="44.2" rx="10" ry="10"/><rect x="2006.4" y="1563.6" width="463.3" height="44.2" rx="10" ry="10"/><rect x="2006.4" y="1657.8" width="295.5" height="32.5" rx="10" ry="10"/></clipPath><linearGradient id="el8q3w4-animated-diff"><stop offset="0%" stop-color="#f5f6f7" stop-opacity="1"><animate attributeName="offset" values="-2; -2; 1" keyTimes="0; 0.25; 1" dur="1.2s" repeatCount="indefinite"/></stop><stop offset="50%" stop-color="#eee" stop-opacity="1"><animate attributeName="offset" values="-1; -1; 2" keyTimes="0; 0.25; 1" dur="1.2s" repeatCount="indefinite"/></stop><stop offset="100%" stop-color="#f5f6f7" stop-opacity="1"><animate attributeName="offset" values="0; 0; 3" keyTimes="0; 0.25; 1" dur="1.2s" repeatCount="indefinite"/></stop></linearGradient></defs></svg>